<!--?xml version="1.0" encoding="UTF-8"?--><svg id="Layer_1" xmlns="http://www.w3.org/2000/svg" xmlns:xlink="http://www.w3.org/1999/xlink" viewBox="0 0 1600 1600"><defs><style>.cls-1{clip-path:url(#clippath);}.cls-2,.cls-3,.cls-4{fill:none;}.cls-2,.cls-5,.cls-6,.cls-7,.cls-8,.cls-9,.cls-10,.cls-11{stroke-width:0px;}.cls-12,.cls-3{stroke:#020202;stroke-linecap:round;stroke-linejoin:round;}.cls-12,.cls-3,.cls-4{stroke-width:4px;}.cls-12,.cls-7{fill:#fff;}.cls-4{stroke:#fff;stroke-miterlimit:10;}.cls-5{fill:#f520c1;}.cls-6{fill:#735ee9;}.cls-8{fill:#fc682d;}.cls-9{fill:#ffd400;}.cls-10{fill:#02c680;}.cls-11{fill:#020202;}</style><clipPath id="clippath"><path class="cls-2" d="m1214.12,854.14c103.44,7.15,212.97-262.35,213.32-310.23.79-108.98-78.27-92.76-181.71-99.91-55.76-3.85-123.65,78.45-108.18,129.93,13.24,44.02-1.42,80.12-1.42,80.12,0,0,29.74,28.64,1.8,70.93-43.3,65.53,17.88,125.13,76.19,129.16Z"></path></clipPath></defs><g class="cls-1"><path class="cls-3" d="m1113.42,508.66c38.93,1.98,101.08,7.84,133.01,10.38,41.56,3.31,119.15,1.33,166.45,10.31"></path><path class="cls-3" d="m1117.61,447.97c38.93,1.98,99.36,18.04,131.28,20.58,41.56,3.31,122.05,4.34,169.35,13.33"></path><path class="cls-3" d="m1109.49,565.5c38.93,1.98,101.08,7.84,133.01,10.38,41.56,3.31,119.15,1.33,166.45,10.31"></path><path class="cls-3" d="m1105.56,622.34c38.93,1.98,101.08,7.84,133.01,10.38,41.56,3.31,119.15,1.33,166.45,10.31"></path><path class="cls-3" d="m1101.63,679.19c38.93,1.98,101.08,7.84,133.01,10.38,41.56,3.31,119.15,1.33,166.45,10.31"></path><path class="cls-3" d="m1097.7,736.03c38.93,1.98,101.08,7.84,133.01,10.38,41.56,3.31,119.15,1.33,166.45,10.31"></path><path class="cls-3" d="m1093.78,792.87c38.93,1.98,101.08,7.84,133.01,10.38,41.56,3.31,119.15,1.33,166.45,10.31"></path><path class="cls-3" d="m1156.13,852.57c1.98-38.93,9.95-149.16,12.49-181.08,3.31-41.56,6.99-183.48,15.97-230.79"></path><path class="cls-3" d="m1213.03,874.25c1.98-38.93,9.89-166.9,12.44-198.83,3.31-41.56,6.41-183.52,15.39-230.83"></path><path class="cls-3" d="m1269.81,860.43c1.98-38.93,9.96-149.16,12.5-181.08,3.31-41.56,7.92-171.61,16.91-218.92"></path><path class="cls-3" d="m1326.31,869.33c1.98-38.93,10.29-154.13,12.84-186.05,3.31-41.56,5.76-165.71,14.74-213.02"></path></g><path class="cls-6" d="m846.44,416.68c-22.9-1.65-74.31-12.5-82.19-64.84-6.39-42.44,2.36-79.55,32.92-106.68,30.56-27.13,97.92-28.07,145.02-26.2,47.09,1.87,233.58-5.6,287.85,5,54.26,10.6,71.1,71.88,66.74,104.86-4.37,32.98-19.65,87.87-91.06,87.87s-283.16,5.47-359.26,0Z"></path><path class="cls-7" d="m803.35,284.45s-11.11-10.09,7.62-26.77c20.31-18.09,44.61-21.93,48.91-12.85,4.3,9.08-.21,13.53-17.07,20.6-27.78,11.66-27.49,24.06-39.46,19.02Z"></path><path class="cls-7" d="m793.26,320.2s4.9,1.71,7.37-8.97c2.47-10.69,1.73-16.55-5.18-18.35-6.92-1.81-10.54,12.39-9.23,19.08,1.31,6.69,4.78,8.06,7.04,8.25Z"></path><polyline class="cls-3" points="997.76 343.57 1044.66 297.03 1111.53 343.57 1182.93 329.95 1225.29 297.03"></polyline><circle class="cls-11" cx="1229.33" cy="292.01" r="10.98"></circle><circle class="cls-11" cx="1111.53" cy="341.93" r="10.98"></circle><path class="cls-9" d="m969.91,324.32s-22.75,14.92-38.26,25.09c-.54.35-1.07.68-1.58,1.03-10.79,7.47-15.4,7.57-25.61,1.27-.52-.34-39.28-27.39-39.28-27.39,0,0,1.01-1.77,2.75-4.83.35-.61.73-1.27,1.13-1.98,13.19-21.2,46.35-79.99,48.84-84.97,6.23,12.45,52.02,91.79,52.02,91.79Z"></path><path class="cls-9" d="m969.91,336.72s-27.7,19.18-42.81,29.63c-.27.19-.54.37-.8.55-.38.27-.75.56-1.12.84-5.07,3.95-11.82,2.93-16.57-.87-.43-.34-.85-.69-1.31-1l-.78-.54c-15.36-10.63-41.35-28.63-41.35-28.63l15.96,22.23c.41.56.83,1.12,1.23,1.71,10.52,15.49,22.46,32.18,34.29,47.42,4.13-4.75,53.26-71.35,53.26-71.35Z"></path><path class="cls-10" d="m470.32,528.51c-22.9-1.65-74.31-12.5-82.19-64.84-6.39-42.44,2.36-79.55,32.92-106.68,30.56-27.13,97.92-28.07,145.02-26.2,47.09,1.87,233.58-5.6,287.85,5,54.26,10.6,71.1,71.88,66.74,104.86-4.37,32.98-19.65,87.87-91.06,87.87s-283.16,5.47-359.26,0Z"></path><path class="cls-7" d="m427.23,396.28s-11.11-10.09,7.62-26.77c20.31-18.09,44.61-21.93,48.91-12.85,4.3,9.08-.21,13.53-17.07,20.6-27.78,11.66-27.49,24.06-39.46,19.02Z"></path><path class="cls-7" d="m417.14,432.03s4.9,1.71,7.37-8.97c2.47-10.69,1.73-16.55-5.18-18.35-6.92-1.81-10.54,12.39-9.23,19.08,1.31,6.69,4.78,8.06,7.04,8.25Z"></path><polyline class="cls-3" points="621.65 455.4 668.54 408.86 717.21 455.4 763.56 408.86 813.93 455.4 849.18 408.86"></polyline><path class="cls-9" d="m581.71,427.72c8.17-6.46,12.44-15.32,12.44-26.07,0-4.15-.69-8.15-2.06-11.85-1.37-3.75-3.38-7.22-5.96-10.28-2.57-3.06-5.58-5.63-8.92-7.61-3.32-2.02-7.05-3.51-11.11-4.41-.43-6.76-.96-13.04-1.62-18.71-.3-2.58-3.73-4.52-6.32-4.69-1.11-.06-2.28-.06-3.4,0-2.59.16-5.94,2.12-6.32,4.69-.76,5.15-1.35,10.92-1.81,17.13h-16.53c-.41-6.15-.91-11.9-1.52-17.13-.3-2.58-3.72-4.52-6.32-4.69-1.11-.06-2.28-.06-3.39,0-2.59.16-5.95,2.12-6.32,4.69-.75,5.15-1.35,10.91-1.8,17.13h-2.51c-6.64,0-11.69,1.68-15.02,5.02-3.32,3.32-5.01,8.43-5.01,15.19v92.01c0,6.6,1.63,11.65,4.84,15.02,3.29,3.43,8.39,5.18,15.19,5.18h3.71c.32,6.69.62,12.84.88,18.24.08,1.81,2.8,3.22,4.6,3.44,1.97.25,4.3.25,6.26,0,1.8-.23,4.49-1.65,4.6-3.46.35-5.82.7-11.92,1.02-18.23h16.32c.75,0,1.48,0,2.2-.02.32,6.7.62,12.85.88,18.25.09,1.81,2.8,3.22,4.61,3.44,1.97.25,4.29.25,6.25,0,1.8-.23,4.5-1.65,4.61-3.46.38-6.22.75-12.76,1.08-19.54,4.44-.72,8.5-1.84,12.1-3.34l.08-.04c6.85-3,12.36-7.72,16.4-14.03,4.02-6.27,6.05-13.41,6.05-21.2,0-9.96-3.41-22.62-18.2-30.7Zm-50.36-29.49c1.24-.74,2.68-1.16,4.22-1.16h3.33c2.54,0,4.67.11,6.46.29,3.76.38,6.02,1.07,7.35,1.69,1.32.61,2.83,1.84,2.83,5.95,0,1.53-.35,2.85-1.06,4.05l-.09.14c-.9,1.68-2.11,2.74-3.8,3.32-1.36.47-3.13.79-5.32.97-1.32.11-2.79.16-4.41.16h-5.31c-1.48,0-2.87-.39-4.07-1.07-2.5-1.42-4.19-4.11-4.19-7.19v-.05c0-3.02,1.62-5.67,4.04-7.11Zm15.13,68.56c-.64.03-1.31.05-2.01.05h-8.85c-1.87,0-3.58-.65-4.93-1.72-1.84-1.45-3.02-3.71-3.02-6.24v-4.07c0-2.74,1.37-5.14,3.48-6.58,1.27-.86,2.81-1.37,4.48-1.37h8.2c.69,0,1.36,0,2,.04,4.9.18,8.6,1.05,11.01,2.59,1.41.9,3.28,2.62,3.28,7.17,0,2.91,0,9.56-13.63,10.14Z"></path><circle class="cls-11" cx="853.21" cy="403.84" r="10.98"></circle><circle class="cls-11" cx="717.12" cy="455.4" r="10.98"></circle><path class="cls-6" d="m1155.21,571.07c47.83,3.81,76.89,38.35,62.04,80.46-45.71,129.63-102.4,306.53-149.78,415.32-21.89,50.25-62.52,175.45-214.11,178.82-122.34,2.72-230.29,7.01-270.14-27.65-34.06-29.63-31.03-71.01-2.62-154.2,13.64-39.94,106.41-281.95,173.88-420.58,20.17-41.46,55.03-70.42,104.8-72.99,108.85-5.63,201.85-6.68,295.93.82Z"></path><path class="cls-11" d="m1096.14,474.5c47.83,3.81,76.89,38.35,62.04,80.46-45.71,129.63-102.4,306.53-149.78,415.32-21.89,50.25-62.52,175.45-214.11,178.82-122.34,2.72-230.29,7.01-270.14-27.65-34.06-29.63-31.03-71.01-2.62-154.2,13.64-39.94,106.41-281.95,173.88-420.58,20.17-41.46,55.03-70.42,104.8-72.99,108.85-5.63,201.85-6.68,295.93.82Z"></path><path class="cls-12" d="m1060.04,474.5c47.83,3.81,76.89,38.35,62.04,80.46-45.71,129.63-102.4,306.53-149.78,415.32-21.89,50.25-62.52,175.45-214.11,178.82-122.34,2.72-230.29,7.01-270.14-27.65-34.06-29.63-31.03-71.01-2.62-154.2,13.64-39.94,106.41-281.95,173.88-420.58,20.17-41.46,55.03-70.42,104.8-72.99,108.85-5.63,201.85-6.68,295.93.82Z"></path><path class="cls-11" d="m1009.68,525.93c37.23,3.14,59.14,31.96,46.64,67.13-38.48,108.26-86.56,256.01-125.89,346.88-18.17,41.97-49.41,129.19-156.09,152.27-93.66,20.26-195.93,8.65-226.26-20.25-25.93-24.71-21.36-64.66,2.61-134.14,11.51-33.36,89.15-235.49,144.8-351.29,16.64-34.63,44.46-58.84,83.35-61.03,85.03-4.79,157.61-5.75,230.84.43Z"></path><path class="cls-10" d="m918.66,586.66c-17.54,3.14-57.81,3.63-77.97-1.19-.59-.14-1.08-.67-1.64-1.25-4.15-4.28-.4-12.29,7.52-15.2.25-.09.49-.2.72-.24,26.81-5.05,50.38-4.69,77.97,1.19.63.13,1.09.77,1.67,1.41,3.86,4.21.11,11.9-7.44,14.98-.29.12-.56.27-.82.31Z"></path><path class="cls-6" d="m581.41,693.24c-14.84,92.05,36.93,221.01,134.37,225.82,78.95,3.9,121.17-39.83,136.01-131.88,14.84-92.05-6.37-192.31-107.57-205.44-87.99-11.41-147.97,19.45-162.81,111.5Z"></path><path class="cls-3" d="m684.17,593.64s-17.07-10.15-43.01,1.61"></path><path class="cls-3" d="m648.73,632.7s-17-15.74-42.58-6.71"></path><path class="cls-3" d="m625.78,665.04s-16.06-15.65-37.1-1.79"></path><path class="cls-3" d="m612.92,712.91s-23.52-4.46-33.88,2.54"></path><path class="cls-3" d="m613.54,773.92s-25.09-.25-30.55-4.27"></path><path class="cls-3" d="m629,831.55s-14.18,4.36-25.43-1.25"></path><path class="cls-3" d="m658.56,878.41s-14.55,2.48-28.58-5.22"></path><ellipse class="cls-9" cx="748.94" cy="754.77" rx="136.7" ry="174.05" transform="translate(-113.33 132.61) rotate(-9.41)"></ellipse><path class="cls-3" d="m644.98,701.59c-17.45,67.04,13.62,144.46,69.4,172.93s115.13-2.8,132.58-69.83c17.45-67.04-13.62-144.46-69.4-172.93-23.75-12.12-48.15-13.41-69.69-5.72"></path><path class="cls-6" d="m791.74,753.06c7.52-7.72,11.18-18.75,10.66-32.47-.2-5.3-1.06-10.45-2.55-15.27-1.49-4.88-3.59-9.44-6.22-13.52-2.61-4.08-5.62-7.55-8.93-10.31-3.28-2.8-6.93-4.94-10.86-6.36-.74-8.66-1.55-16.71-2.46-24-.41-3.31-3.8-6.02-6.29-6.4-1.07-.15-2.19-.23-3.26-.22-2.47.04-5.6,2.32-5.83,5.57-.47,6.53-.76,13.85-.9,21.75l-15.85-1.09c-.69-7.89-1.45-15.26-2.29-21.97-.41-3.31-3.79-6.02-6.29-6.4-1.07-.15-2.19-.23-3.25-.22-2.48.04-5.6,2.32-5.83,5.57-.47,6.53-.76,13.84-.9,21.75l-2.41-.17c-6.36-.44-11.13,1.38-14.16,5.42-3.02,4.03-4.39,10.44-4.06,19.06l4.47,117.5c.32,8.43,2.13,14.99,5.37,19.5,3.32,4.6,8.3,7.17,14.81,7.62l3.56.24c.63,8.57,1.22,16.43,1.73,23.35.17,2.32,2.85,4.3,4.58,4.7,1.9.44,4.13.6,6.01.42,1.72-.17,4.22-1.81,4.24-4.12.06-7.41.09-15.17.09-23.21l15.65,1.07c.72.05,1.42.1,2.11.12.63,8.58,1.22,16.45,1.73,23.37.18,2.32,2.85,4.3,4.58,4.7,1.9.44,4.12.6,6,.42,1.72-.17,4.23-1.81,4.25-4.11.06-7.92.1-16.25.09-24.88,4.23-.63,8.06-1.79,11.44-3.47l.08-.04c6.42-3.39,11.48-9.05,15.04-16.84,3.54-7.75,5.15-16.73,4.77-26.67-.48-12.72-4.37-29.11-18.94-40.41Zm-49.72-40.98c1.15-.86,2.51-1.3,3.99-1.2l3.2.22c2.44.17,4.48.45,6.21.8,3.62.74,5.82,1.77,7.13,2.65,1.3.87,2.8,2.54,3,7.79.07,1.95-.19,3.62-.82,5.1l-.08.17c-.78,2.09-1.89,3.36-3.48,3.99-1.28.52-2.96.81-5.05.89-1.26.05-2.67.03-4.22-.08l-5.09-.35c-1.41-.1-2.77-.69-3.95-1.64-2.47-1.98-4.21-5.52-4.37-9.46v-.07c-.15-3.86,1.28-7.14,3.53-8.81Zm17.84,88.55c-.61,0-1.25-.03-1.93-.07l-8.48-.58c-1.79-.12-3.46-1.06-4.82-2.52-1.83-1.97-3.08-4.93-3.2-8.16l-.2-5.2c-.13-3.5,1.07-6.48,3.01-8.18,1.18-1.02,2.63-1.57,4.23-1.46l7.87.54c.66.05,1.3.1,1.92.18,4.71.56,8.3,1.9,10.68,4.03,1.4,1.24,3.27,3.56,3.49,9.38.14,3.72.46,12.21-12.58,12.05Z"></path><path class="cls-7" d="m637.53,727.5c-13.01-7.81-2.41-61.8,16.53-69.7,16.09-6.71,13.53,14.69,4.03,38.09-5.83,14.36-9.6,38.19-20.56,31.61Z"></path><path class="cls-7" d="m679.39,644.35c-5.91-12.86,16.29-27.48,28.26-21.89,7.73,3.61-1.07,15.89-11.22,22.16-6.23,3.85-14.22,5.85-17.04-.26Z"></path><path class="cls-11" d="m856.38,646.64s-19.96,87.95-45.69,146.83c-31.42,71.9-74.56,159.85-74.56,159.85l120.26-36.51,73.66-126.71,15.85-82.77-89.51-60.69Z"></path><path class="cls-4" d="m864.52,621.24s-40.43,182.42-170.02,409.04"></path><path class="cls-3" d="m1150.62,845.03c176.17,93.13,259.55,199.42,233.89,296.32-37.42,141.33-373.96,232.51-707.94,144.07-333.98-88.43-538.94-322.98-501.52-464.31,27.13-102.48,192.89-153.2,409.29-139.63"></path><ellipse class="cls-8" cx="1275.38" cy="1218.81" rx="178.94" ry="131.75" transform="translate(-481.42 1379.27) rotate(-48.92)"></ellipse><path class="cls-3" d="m1368.67,1099.54s17.33-6.19,42.43,5.44"></path><path class="cls-3" d="m1385.04,1142.96s22.67-8.82,42.77,7.66"></path><path class="cls-3" d="m1392.68,1179.8s21.75-9.05,35.54,10.37"></path><path class="cls-3" d="m1384.23,1227.49s23.95,3.54,30.66,13.27"></path><path class="cls-3" d="m1357.52,1282.78s23.62,7.88,30.45,5.99"></path><path class="cls-3" d="m1314.37,1331.89s11.42,8.54,24.37,7.08"></path><ellipse class="cls-9" cx="1238.84" cy="1221.6" rx="178.94" ry="131.75" transform="translate(-496.05 1352.68) rotate(-48.92)"></ellipse><path class="cls-6" d="m1309.67,1228.16s-38.04,22.36-63.97,37.61c-.9.53-1.78,1.02-2.64,1.55-18.22,11.2-24.64,11.31-36.05,1.68-.57-.52-42.5-41.81-42.5-41.81,0,0,2.17-2.68,5.92-7.29.75-.92,1.56-1.92,2.43-2.99,27.54-31.96,99.14-120.61,104.76-128.13,3.2,18.9,32.05,139.37,32.05,139.37Z"></path><path class="cls-6" d="m1304.26,1246.93s-46.76,28.76-72.26,44.45c-.46.28-.91.56-1.35.83-.65.4-1.28.83-1.92,1.27-8.75,5.93-17.67,4.32-22.59-1.47-.44-.52-.89-1.05-1.37-1.52l-.84-.82c-16.65-16.23-44.83-43.7-44.83-43.7,0,0,5.48,14.9,12.42,33.78.32.86.66,1.71.96,2.6,7.82,23.54,17.1,48.9,26.83,72.07,7.8-7.15,104.95-107.47,104.95-107.47Z"></path><path class="cls-5" d="m1364.74,862.51c8.57-1.86,16.45,1.94,18.68,12.23,2.23,10.29-2.03,23.17-10.6,25.03-8.57,1.86-16.68-2-18.91-12.29-2.23-10.29,2.26-23.11,10.84-24.97Z"></path><path class="cls-12" d="m353.43,960.62c10.83-2.35,20.55,1.35,22.89,12.18,2.35,10.83-3.56,24.7-14.39,27.05-10.83,2.35-20.84-1.4-23.18-12.23-2.35-10.83,3.85-24.65,14.68-27Z"></path><path class="cls-9" d="m283.11,399.46c-8.66,24.5,15.45,48.04,39.59,38.43,13.37-5.33,22.39-14.03,23.65-22.4,1.75-11.64-2.79-34.49,9.37-52.99,5.44-8.28-2.16-18.99-11.74-16.49-23.92,6.23-50.44,23.97-60.86,53.46Z"></path></svg>